<svg width="128" height="128" viewBox="0 0 128 128" fill="none" xmlns="http://www.w3.org/2000/svg">
<circle cx="64" cy="64" r="64" fill="white"/>
<path d="M20.4516 94.9677V36.9032C20.4516 35.129 21.0833 33.6102 22.3468 32.3468C23.6102 31.0833 25.129 30.4516 26.9032 30.4516H78.5161C80.2903 30.4516 81.8091 31.0833 83.0726 32.3468C84.336 33.6102 84.9677 35.129 84.9677 36.9032V75.6129C84.9677 77.3871 84.336 78.9059 83.0726 80.1694C81.8091 81.4328 80.2903 82.0645 78.5161 82.0645H33.3548L20.4516 94.9677ZM30.6129 75.6129H78.5161V36.9032H26.9032V79.2419L30.6129 75.6129Z" fill="#FF6D00"/>
<path d="M109.054 99.6989V60.9892C109.054 59.8064 108.633 58.7939 107.79 57.9516C106.948 57.1093 105.935 56.6882 104.753 56.6882H70.3441C69.1613 56.6882 68.1487 57.1093 67.3064 57.9516C66.4642 58.7939 66.043 59.8064 66.043 60.9892V86.7957C66.043 87.9785 66.4642 88.991 67.3064 89.8333C68.1487 90.6756 69.1613 91.0968 70.3441 91.0968H100.452L109.054 99.6989Z" fill="#FF6D00"/>
</svg>
